<svg id="Capa_1" data-name="Capa 1" xmlns="http://www.w3.org/2000/svg" viewBox="0 0 595.28 151.01"><defs><style>.cls-1{fill:#fff;}</style></defs><path class="cls-1" d="M34.67,94.64c-6.59,9.13-1.9,18.13,10.65,17,29.28-2.66,43-51.47,54-72.77C88.55,34.55,82.21,31.38,73,31.38c-12.43,0-18.13,5.58-21.43,17.24-.25,1-.89,1.65-1.52,1.65-.38,0-.76-.25-1.27-.76a18,18,0,0,1-4.18-12c0-11.79,9.38-20.92,24.47-20.92,16,0,25.6,10.27,36.13,14.58,3.42-6.08,8.62-10.27,14.19-10.27,4.69,0,7.48,2.92,7.48,7.86,0,7.35-6.08,14.45-13.18,14.71-15.72,22.69-22.19,88.86-66.56,88.86-14.57,0-26.87-9.63-25.1-23.7,1-8.12,6.47-13.44,9.77-16.23C34.8,89.82,36.7,91.73,34.67,94.64Z"/><path class="cls-1" d="M157.76,110c-4.94,7-10.39,11.54-16.86,11.54s-10.14-4.57-10.14-11.16c0-8,5.32-15.59,6.59-17.75.38-.63-.63-.88-1.14-.12-2.41,3.67-8,12.8-17.37,12.8-7.35,0-11.53-6.08-11.53-13.44,0-16.6,15.08-44.62,30.93-44.62,10.39,0,12.42,11,13.18,11A46.14,46.14,0,0,0,154,53.19,5.32,5.32,0,0,1,159,50.4c4.18,0,9,3.3,6.59,8-4.18,8.24-19.52,35.74-19.52,43.86,0,3.67,2.28,3.8,2.79,3.8,5.83,0,16.86-20.66,20.41-26.87a3.26,3.26,0,0,1,2.91-1.4c2,0,4.06,1.27,3,3A303.51,303.51,0,0,1,157.76,110Zm-17-52.1c-9.25,0-17.87,20-17.87,29.79,0,3.42,1.39,5.32,3,5.32,5.58,0,16.86-23.19,19.65-29.28C144.83,60.67,143.18,57.88,140.77,57.88Z"/><path class="cls-1" d="M198.07,75.25m-7.35,13.81,7.35-13.81c4.82-9.89,8.49-19.65,8.49-24.22a9.17,9.17,0,0,0-.63-3.8c-.51-1.14-.25-1.9.76-1.77,8.24.76,13.06,5.57,12.42,12-.63,5.58-6,18.63-13.56,31.06a13.15,13.15,0,0,0,2.28.25c4.94,0,7.1-3,11.16-9.63a3.26,3.26,0,0,1,2.91-1.4c2,0,4.06,1.27,3,3-5.45,10-10.52,15.34-18.12,15.34a14.94,14.94,0,0,1-5.45-1C193,107.32,183,117.46,173.86,117.46c-6.6,0-12.43-5.83-12.43-12.93,0-11,14.45-42.47,18.89-49.19,1.14-1.77,3.17-2.41,5.33-2.41,3.8,0,7.86,2.29,6.33,5.08-6.71,12.67-15.46,34.6-15.46,41.7,0,1.14.25,3.17,1.9,3.17,2.79,0,7.48-5.83,12.3-13.82Z"/><path class="cls-1" d="M224.85,107.86c-7.1,0-10.14-4.18-10.14-10.27,0-13.69,15-39.3,18.38-44.62a6.92,6.92,0,0,1,6.09-3.17c3.8,0,7.22,2.41,5.7,5.07-6.72,10.9-14.07,28.65-14.07,34.74,0,3.16,1,4.81,2.92,4.81,4.18,0,8.62-8.74,10.65-12.55a3,3,0,0,1,2.91-1.39c2,0,4.18,1.27,3.17,3C245,93.54,238,107.86,224.85,107.86Zm28.91-86.33c4.56,1.14,4.31,7.86,2.15,13.31-1.77,4.44-6.46,9.64-11.53,8.24s-5.71-7.1-1.78-14.7C245,23.56,250,20.52,253.76,21.53Z"/><path class="cls-1" d="M303.28,51.41a12.25,12.25,0,0,0,3.05.38c7.48,0,16.22-5.7,16.22-14.7,0-6-3.8-8.62-9.38-8.62-13.82,0-32.45,16.22-32.45,27.51,0,15.84,36.13,11.28,36.13,35.11,0,17-18.38,30.68-41.2,30.68-26.12,0-38-17.87-33.85-34.1,1.65-6.21,5.2-10.65,8.87-12.3,1.65-.76,2.16-.25,1.4,1.78-3.93,9.63-.89,26.87,20.79,26.87,14.58,0,29.28-7.86,29.28-15.08,0-11.79-39.93-7.48-39.93-32.2,0-19.4,24.47-40.57,49.82-40.57,16.1,0,26.88,8.49,26.88,21.43,0,13.31-11.29,23.45-24.47,23.45-6.47,0-11.41-3.17-12.55-8.24C301.64,51.67,302.14,51.16,303.28,51.41Z"/><path class="cls-1" d="M336.75,121.52c-10.4,0-16.23-5.83-16.48-15.72-.51-19,19.65-57.3,42.34-57.3,7.1,0,11.41,3.67,11.41,9.76s-4.31,15.08-9.51,21.3a5.27,5.27,0,0,1-3.93,1.64c-2.41,0-4.44-1.52-2.79-3.8,4.69-6.46,6.72-12.17,6.72-15.08,0-2.16-1-3.17-2.79-3.17-9.89,0-24.34,29.79-24.34,44,0,3.8,1,7,6.34,7,13.44,0,24.72-20.16,30.93-30.93a3.29,3.29,0,0,1,2.92-1.4c2,0,4.05,1.27,3,3C371.74,97.3,357.79,121.52,336.75,121.52Z"/><path class="cls-1" d="M400.13,60.29c0-4.19-1.52-6.34-4.18-6.59-5.2,9-11.67,21-16.87,30a4.3,4.3,0,0,1-2.91,1c-1.78,0-3.42-1.14-3.17-2.53l21.55-40.31a5.61,5.61,0,0,1,5.33-3c3.42,0,6.59,2.28,4.43,4.82a4.45,4.45,0,0,0-1.39,2.66c0,1.27,1.14,2.41,3.67,3.3,5.2,1.77,7.86,5.2,7.86,9.13,0,9.63-16.35,36-16.35,44.11,0,3,2.28,3.17,2.79,3.17,4.69,0,11.41-10.9,20.41-26.87a2.94,2.94,0,0,1,2.79-1.4c2,0,4.18,1.4,3.17,3.17-7,12.8-12.55,22.06-17.5,29s-10.39,11.54-16.86,11.54c-8.24,0-12.8-4.19-12.8-12C380.1,92.87,400.13,68.4,400.13,60.29Z"/><path class="cls-1" d="M427.64,105.16c-7.1,0-10.15-4.18-10.15-10.26,0-13.7,15-39.3,18.39-44.63A6.89,6.89,0,0,1,442,47.1c3.8,0,7.23,2.41,5.71,5.07C441,63.08,433.59,80.82,433.59,86.91c0,3.17,1,4.82,2.92,4.82,4.18,0,8.62-8.75,10.65-12.55a3,3,0,0,1,2.91-1.4c2,0,4.19,1.27,3.17,3C447.79,90.84,440.82,105.16,427.64,105.16Zm28.9-86.33c4.56,1.14,4.31,7.86,2.16,13.31-1.78,4.44-6.47,9.64-11.54,8.24s-5.71-7.09-1.78-14.7C447.79,20.86,452.74,17.82,456.54,18.83Z"/><path class="cls-1" d="M434.61,144.46c-5.58,0-8.88-3.55-8.88-9.63,0-8.37,6.21-21.93,11.66-34.1,8.88-20,19.15-42.09,26-55.4,1.27-2.41,4.06-3.42,6.72-3.42,3.93,0,7.61,2.15,5.45,5.57-3.67,6-4.56,7.61-4.81,8.12-.51.88.5,1.39,1.14.63,3.93-4.82,10.26-13.18,19.27-13.18,7.73,0,11.91,6.08,11.91,13.43,0,8.24-3.55,21.17-9.76,32.08a14.74,14.74,0,0,0,2.41.25c4.94,0,7.1-3,11.16-9.63a3.26,3.26,0,0,1,2.91-1.4c2,0,4.06,1.27,3,3-5.45,10-10.52,15.34-18.12,15.34A13.28,13.28,0,0,1,489.12,95c-5.83,8-13.19,13.69-21.68,13.69-11.79,0-13.69-11.15-10.4-20.53l1.78-5.07c.38-1-.51-1.27-.89-.38-1.27,2.66-5.7,11.66-10.52,24.21-4.06,10.65-8.11,23.7-4.44,29.54a7.9,7.9,0,0,0,1.78,1.77c.76.51.76.76.25,1.27C442,142.18,439.17,144.46,434.61,144.46Zm50.32-89.88c-9,0-18.51,20.54-19.39,32.46-.26,3.42.5,5.83,2.91,5.95,2.67,0,6.09-2.4,9.13-6.21-.89-1.65-.51-4.81.89-8,1.65-3.93,5.07-6.34,6.84-5.58.13,0,.26.12.38.12a39.91,39.91,0,0,0,3.43-13.05c.25-3.43-1-5.45-3.81-5.71Z"/><path class="cls-1" d="M529,31l.38-.76c1.53-2.91,4.82-4.18,8-4.18,3.42,0,6.72,1.65,6,5.58,12.3.38,23.58,0,30.17-5.71,3.93-3.29,4.56-.63,2.79,5.2-2.54,8.62-11.28,12.68-23.33,11.66-4.81-.38-9.5-1.14-14.07-1.77l-3.29,6.46c-6.6,13.19-21,42.72-21,55,0,2,1.14,3.55,3.17,3.55,5.33,0,11.66-11,21-26.87a3.26,3.26,0,0,1,2.91-1.4c2,0,4.06,1.27,3,3-7,12.81-12.55,22.19-17.49,29.16s-10.39,11.54-16.86,11.54c-8.24,0-12.55-4.82-12.55-12.68,0-13.44,17.87-51,27.26-70.1-9.77-1.14-18.13-1-24.6,4.18-2.41,2-6.84-.63-4.18-3.68C503.06,31.38,515.61,30.62,529,31Z"/></svg>